# This file uses centimeters as units for non-parametric coordinates.

mtllib flying-car_frame.mtl
g default
v -0.366665 -0.408222 1.022224
v -0.183332 -0.408222 1.022224
v 0.000000 -0.408222 1.022224
v 0.183332 -0.408222 1.022224
v 0.366665 -0.408222 1.022224
v -0.677780 -0.250000 1.144424
v -0.338890 -0.250000 1.144424
v 0.000000 -0.250000 1.144424
v 0.338890 -0.250000 1.144424
v 0.677780 -0.250000 1.144424
v -0.688889 -0.129169 1.144424
v 0.688889 -0.129169 1.144424
v -0.500000 0.054440 0.633064
v -0.250000 0.054440 0.633064
v 0.000000 0.054440 0.633064
v 0.250000 0.054440 0.633064
v 0.500000 0.054440 0.633064
v -0.500000 0.217724 0.182943
v -0.250000 0.217724 0.182943
v 0.000000 0.217724 0.182943
v 0.250000 0.217724 0.182943
v 0.500000 0.217724 0.182943
v -0.688889 -0.129169 -1.356857
v -0.344444 -0.129169 -1.356857
v 0.000000 -0.129169 -1.356857
v 0.344444 -0.129169 -1.356857
v 0.688889 -0.129169 -1.356857
v -0.677780 -0.250000 -1.356857
v -0.338890 -0.250000 -1.356857
v 0.000000 -0.250000 -1.356857
v 0.338890 -0.250000 -1.356857
v 0.677780 -0.250000 -1.356857
v -0.366665 -0.408222 -1.268501
v -0.183332 -0.408222 -1.268501
v 0.000000 -0.408222 -1.268501
v 0.183332 -0.408222 -1.268501
v 0.366665 -0.408222 -1.268501
v -0.366665 -0.408222 -0.511112
v -0.183332 -0.408222 -0.511112
v 0.000000 -0.408222 -0.511112
v 0.183332 -0.408222 -0.511112
v 0.366665 -0.408222 -0.511112
v -0.366665 -0.408222 0.000000
v -0.183332 -0.408222 0.000000
v 0.000000 -0.408222 0.000000
v 0.183332 -0.408222 0.000000
v 0.366665 -0.408222 0.000000
v -0.366665 -0.408222 0.511112
v -0.183332 -0.408222 0.511112
v 0.000000 -0.408222 0.511112
v 0.183332 -0.408222 0.511112
v 0.366665 -0.408222 0.511112
v 0.677780 -0.250000 -0.511112
v 0.677780 -0.250000 0.000000
v 0.677780 -0.250000 0.511112
v 0.688889 -0.129169 -0.511112
v 0.688889 -0.129169 0.511112
v 0.688889 -0.074688 0.511112
v -0.677780 -0.250000 -0.511112
v -0.677780 -0.250000 0.000000
v -0.677780 -0.250000 0.511112
v -0.688889 -0.129169 -0.511112
v -0.688889 -0.129169 0.511112
v -0.688889 -0.074688 0.511112
vt 0.375000 0.000000
vt 0.437500 0.000000
vt 0.500000 0.000000
vt 0.562500 0.000000
vt 0.625000 0.000000
vt 0.375000 0.062500
vt 0.437500 0.062500
vt 0.500000 0.062500
vt 0.562500 0.062500
vt 0.625000 0.062500
vt 0.375000 0.125000
vt 0.625000 0.125000
vt 0.375000 0.250000
vt 0.437500 0.250000
vt 0.500000 0.250000
vt 0.562500 0.250000
vt 0.625000 0.250000
vt 0.375000 0.312500
vt 0.437500 0.312500
vt 0.500000 0.312500
vt 0.562500 0.312500
vt 0.625000 0.312500
vt 0.375000 0.625000
vt 0.437500 0.625000
vt 0.500000 0.625000
vt 0.562500 0.625000
vt 0.625000 0.625000
vt 0.375000 0.687500
vt 0.437500 0.687500
vt 0.500000 0.687500
vt 0.562500 0.687500
vt 0.625000 0.687500
vt 0.375000 0.750000
vt 0.437500 0.750000
vt 0.500000 0.750000
vt 0.562500 0.750000
vt 0.625000 0.750000
vt 0.375000 0.812500
vt 0.437500 0.812500
vt 0.500000 0.812500
vt 0.562500 0.812500
vt 0.625000 0.812500
vt 0.375000 0.875000
vt 0.437500 0.875000
vt 0.500000 0.875000
vt 0.562500 0.875000
vt 0.625000 0.875000
vt 0.375000 0.937500
vt 0.437500 0.937500
vt 0.500000 0.937500
vt 0.562500 0.937500
vt 0.625000 0.937500
vt 0.375000 1.000000
vt 0.437500 1.000000
vt 0.500000 1.000000
vt 0.562500 1.000000
vt 0.625000 1.000000
vt 0.875000 0.000000
vt 0.812500 0.000000
vt 0.750000 0.000000
vt 0.687500 0.000000
vt 0.875000 0.062500
vt 0.812500 0.062500
vt 0.750000 0.062500
vt 0.687500 0.062500
vt 0.875000 0.125000
vt 0.812500 0.125000
vt 0.687500 0.125000
vt 0.687500 0.187500
vt 0.687500 0.250000
vt 0.125000 0.000000
vt 0.187500 0.000000
vt 0.250000 0.000000
vt 0.312500 0.000000
vt 0.125000 0.062500
vt 0.187500 0.062500
vt 0.250000 0.062500
vt 0.312500 0.062500
vt 0.125000 0.125000
vt 0.187500 0.125000
vt 0.312500 0.125000
vt 0.312500 0.187500
vt 0.312500 0.250000
vn 0.000000 -0.611252 0.791436
vn 0.000000 -0.611251 0.791437
vn 0.000000 -0.611251 0.791437
vn 0.000000 -0.611251 0.791436
vn 0.000000 -0.611251 0.791436
vn 0.000000 -0.611251 0.791436
vn 0.000000 -0.611251 0.791437
vn 0.000000 -0.611251 0.791437
vn 0.000000 -0.611252 0.791436
vn 0.000000 -0.611251 0.791436
vn 0.000000 0.940059 0.341011
vn 0.000000 0.940059 0.341011
vn 0.000000 0.940059 0.341011
vn 0.000000 0.940059 0.341011
vn 0.000000 0.940059 0.341011
vn 0.000000 0.940059 0.341011
vn 0.000000 0.940059 0.341011
vn 0.000000 0.940059 0.341011
vn 0.000000 0.940059 0.341011
vn 0.000000 0.940059 0.341011
vn 0.000000 0.000000 -1.000000
vn 0.000000 0.000000 -1.000000
vn 0.000000 -0.269018 -0.963135
vn 0.000000 -0.133369 -0.991066
vn 0.000000 0.000000 -1.000000
vn 0.000000 -0.269018 -0.963135
vn 0.000000 0.000000 -1.000000
vn 0.000000 -0.269018 -0.963135
vn 0.000000 0.000000 -1.000000
vn 0.000000 -0.133369 -0.991066
vn 0.000000 -0.487559 -0.873090
vn 0.000000 -0.487559 -0.873090
vn 0.000000 -0.487560 -0.873090
vn 0.000000 -0.487559 -0.873090
vn 0.000000 -0.487559 -0.873090
vn 0.000000 -1.000000 0.000000
vn 0.000000 -1.000000 0.000000
vn 0.000000 -1.000000 0.000000
vn 0.000000 -1.000000 0.000000
vn 0.000000 -1.000000 0.000000
vn 0.000000 -1.000000 0.000000
vn 0.000000 -1.000000 0.000000
vn 0.000000 -1.000000 0.000000
vn 0.000000 -1.000000 0.000000
vn 0.000000 -1.000000 0.000000
vn 0.000000 -1.000000 0.000000
vn 0.000000 -1.000000 0.000000
vn 0.000000 -1.000000 0.000000
vn 0.000000 -1.000000 0.000000
vn 0.000000 -1.000000 0.000000
vn 0.000000 -1.000000 0.000000
vn 0.000000 -1.000000 0.000000
vn 0.000000 -1.000000 0.000000
vn 0.000000 -1.000000 0.000000
vn 0.000000 -1.000000 0.000000
vn 0.000000 -1.000000 0.000000
vn 0.000000 -1.000000 0.000000
vn 0.000000 -1.000000 0.000000
vn 0.000000 -1.000000 0.000000
vn 0.000000 -1.000000 0.000000
vn 0.453310 -0.891353 0.000000
vn 0.453310 -0.891353 0.000000
vn 0.689717 -0.724079 0.000000
vn 0.595741 -0.803176 0.000000
vn 0.453310 -0.891353 0.000000
vn 0.453310 -0.891353 0.000000
vn 0.453310 -0.891353 0.000000
vn 0.584610 -0.811314 0.000000
vn 0.453310 -0.891353 0.000000
vn 0.708925 -0.705284 0.000000
vn 0.995801 -0.091546 0.000000
vn 0.995801 -0.091546 0.000000
vn 0.995801 -0.091547 0.000000
vn 0.995801 -0.091547 0.000000
vn 0.653263 0.711749 0.258190
vn 0.653263 0.711749 0.258190
vn 0.653263 0.711749 0.258190
vn -0.453310 -0.891353 0.000000
vn -0.453310 -0.891353 0.000000
vn -0.595741 -0.803176 0.000000
vn -0.689717 -0.724079 0.000000
vn -0.453310 -0.891353 0.000000
vn -0.453310 -0.891353 0.000000
vn -0.453310 -0.891353 0.000000
vn -0.584610 -0.811314 0.000000
vn -0.453310 -0.891353 0.000000
vn -0.708925 -0.705284 0.000000
vn -0.995801 -0.091546 0.000000
vn -0.995801 -0.091546 0.000000
vn -0.995801 -0.091547 0.000000
vn -0.995801 -0.091547 0.000000
vn -0.653262 0.711749 0.258190
vn -0.653262 0.711749 0.258190
vn -0.653262 0.711749 0.258190
s 1
g pCube2
usemtl phong4SG
f 1/1/1 2/2/2 7/7/3 6/6/4
f 2/2/2 3/3/5 8/8/6 7/7/3
f 3/3/5 4/4/7 9/9/8 8/8/6
f 4/4/7 5/5/9 10/10/10 9/9/8
s 2
usemtl phong3SG
f 13/13/11 14/14/12 19/19/13 18/18/14
f 14/14/12 15/15/15 20/20/16 19/19/13
f 15/15/15 16/16/17 21/21/18 20/20/16
f 16/16/17 17/17/19 22/22/20 21/21/18
s 3
usemtl phong1SG
f 23/23/21 24/24/22 29/29/23 28/28/24
f 24/24/22 25/25/25 30/30/26 29/29/23
f 25/25/25 26/26/27 31/31/28 30/30/26
f 26/26/27 27/27/29 32/32/30 31/31/28
usemtl phong4SG
f 28/28/24 29/29/23 34/34/31 33/33/32
f 29/29/23 30/30/26 35/35/33 34/34/31
f 30/30/26 31/31/28 36/36/34 35/35/33
f 31/31/28 32/32/30 37/37/35 36/36/34
s 4
f 33/33/36 34/34/37 39/39/38 38/38/39
f 34/34/37 35/35/40 40/40/41 39/39/38
f 35/35/40 36/36/42 41/41/43 40/40/41
f 36/36/42 37/37/44 42/42/45 41/41/43
f 38/38/39 39/39/38 44/44/46 43/43/47
f 39/39/38 40/40/41 45/45/48 44/44/46
f 40/40/41 41/41/43 46/46/49 45/45/48
f 41/41/43 42/42/45 47/47/50 46/46/49
f 43/43/47 44/44/46 49/49/51 48/48/52
f 44/44/46 45/45/48 50/50/53 49/49/51
f 45/45/48 46/46/49 51/51/54 50/50/53
f 46/46/49 47/47/50 52/52/55 51/51/54
f 48/48/52 49/49/51 2/54/56 1/53/57
f 49/49/51 50/50/53 3/55/58 2/54/56
f 50/50/53 51/51/54 4/56/59 3/55/58
f 51/51/54 52/52/55 5/57/60 4/56/59
s 5
f 42/59/61 37/58/62 32/62/63 53/63/64
f 47/60/65 42/59/61 53/63/64 54/64/66
f 52/61/67 47/60/65 54/64/66 55/65/68
f 5/5/69 52/61/67 55/65/68 10/10/70
usemtl phong1SG
f 53/63/64 32/62/63 27/66/71 56/67/72
f 10/10/70 55/65/68 57/68/73 12/12/74
s off
usemtl phong3SG
f 17/17/75 58/69/76 22/70/77
s 6
usemtl phong4SG
f 33/71/78 38/72/79 59/76/80 28/75/81
f 38/72/79 43/73/82 60/77/83 59/76/80
f 43/73/82 48/74/84 61/78/85 60/77/83
f 48/74/84 1/1/86 6/6/87 61/78/85
usemtl phong1SG
f 28/75/81 59/76/80 62/80/88 23/79/89
f 61/78/85 6/6/87 11/11/90 63/81/91
s off
usemtl phong3SG
f 64/82/92 13/13/93 18/83/94
