# This file uses centimeters as units for non-parametric coordinates.

mtllib flying-car_body.mtl
g default
v -0.366665 -0.408222 1.022224
v -0.183332 -0.408222 1.022224
v 0.000000 -0.408222 1.022224
v 0.183332 -0.408222 1.022224
v 0.366665 -0.408222 1.022224
v -0.677780 -0.250000 1.144424
v -0.338890 -0.250000 1.144424
v 0.000000 -0.250000 1.144424
v 0.338890 -0.250000 1.144424
v 0.677780 -0.250000 1.144424
v -0.688889 -0.129169 1.144424
v -0.344444 -0.129169 1.144424
v 0.000000 -0.129169 1.144424
v 0.344444 -0.129169 1.144424
v 0.688889 -0.129169 1.144424
v -0.688889 -0.129208 1.022224
v -0.344444 -0.129208 1.022224
v 0.000000 -0.129208 1.022224
v 0.344444 -0.129208 1.022224
v 0.688889 -0.129208 1.022224
v -0.500000 0.054440 0.633064
v -0.250000 0.054440 0.633064
v 0.000000 0.054440 0.633064
v 0.250000 0.054440 0.633064
v 0.500000 0.054440 0.633064
v -0.500000 0.217724 0.182943
v -0.250000 0.217724 0.182943
v 0.000000 0.217724 0.182943
v 0.250000 0.217724 0.182943
v 0.500000 0.217724 0.182943
v -0.500000 0.304480 0.000000
v -0.250000 0.304480 0.000000
v 0.000000 0.304480 0.000000
v 0.250000 0.304480 0.000000
v 0.500000 0.304480 0.000000
v -0.500000 0.304480 -0.511112
v -0.250000 0.304480 -0.511112
v 0.000000 0.304480 -0.511112
v 0.250000 0.304480 -0.511112
v 0.500000 0.304480 -0.511112
v -0.500000 0.165361 -0.892502
v -0.250000 0.165361 -0.892502
v 0.000000 0.165361 -0.892502
v 0.250000 0.165361 -0.892502
v 0.500000 0.165361 -0.892502
v -0.688889 -0.129208 -1.268501
v -0.344444 -0.129208 -1.268501
v 0.000000 -0.129208 -1.268501
v 0.344444 -0.129208 -1.268501
v 0.688889 -0.129208 -1.268501
v -0.688889 -0.129169 -1.356857
v -0.344444 -0.129169 -1.356857
v 0.000000 -0.129169 -1.356857
v 0.344444 -0.129169 -1.356857
v 0.688889 -0.129169 -1.356857
v -0.677780 -0.250000 -1.356857
v -0.338890 -0.250000 -1.356857
v 0.000000 -0.250000 -1.356857
v 0.338890 -0.250000 -1.356857
v 0.677780 -0.250000 -1.356857
v -0.366665 -0.408222 -1.268501
v -0.183332 -0.408222 -1.268501
v 0.000000 -0.408222 -1.268501
v 0.183332 -0.408222 -1.268501
v 0.366665 -0.408222 -1.268501
v 0.677780 -0.250000 -0.511112
v 0.677780 -0.250000 0.000000
v 0.677780 -0.250000 0.511112
v 0.688889 -0.129169 -0.511112
v 0.688889 -0.129169 0.000000
v 0.688889 -0.129169 0.511112
v 0.688889 -0.074688 -0.511112
v 0.688889 -0.074688 0.000000
v 0.688889 -0.074688 0.511112
v -0.677780 -0.250000 -0.511112
v -0.677780 -0.250000 0.000000
v -0.677780 -0.250000 0.511112
v -0.688889 -0.129169 -0.511112
v -0.688889 -0.129169 0.000000
v -0.688889 -0.129169 0.511112
v -0.688889 -0.074688 -0.511112
v -0.688889 -0.074688 0.000000
v -0.688889 -0.074688 0.511112
vt 0.375000 0.000000
vt 0.437500 0.000000
vt 0.500000 0.000000
vt 0.562500 0.000000
vt 0.625000 0.000000
vt 0.375000 0.062500
vt 0.437500 0.062500
vt 0.500000 0.062500
vt 0.562500 0.062500
vt 0.625000 0.062500
vt 0.375000 0.125000
vt 0.437500 0.125000
vt 0.500000 0.125000
vt 0.562500 0.125000
vt 0.625000 0.125000
vt 0.375000 0.187500
vt 0.437500 0.187500
vt 0.500000 0.187500
vt 0.562500 0.187500
vt 0.625000 0.187500
vt 0.375000 0.250000
vt 0.437500 0.250000
vt 0.500000 0.250000
vt 0.562500 0.250000
vt 0.625000 0.250000
vt 0.375000 0.312500
vt 0.437500 0.312500
vt 0.500000 0.312500
vt 0.562500 0.312500
vt 0.625000 0.312500
vt 0.375000 0.375000
vt 0.437500 0.375000
vt 0.500000 0.375000
vt 0.562500 0.375000
vt 0.625000 0.375000
vt 0.375000 0.437500
vt 0.437500 0.437500
vt 0.500000 0.437500
vt 0.562500 0.437500
vt 0.625000 0.437500
vt 0.375000 0.500000
vt 0.437500 0.500000
vt 0.500000 0.500000
vt 0.562500 0.500000
vt 0.625000 0.500000
vt 0.375000 0.562500
vt 0.437500 0.562500
vt 0.500000 0.562500
vt 0.562500 0.562500
vt 0.625000 0.562500
vt 0.375000 0.625000
vt 0.437500 0.625000
vt 0.500000 0.625000
vt 0.562500 0.625000
vt 0.625000 0.625000
vt 0.375000 0.687500
vt 0.437500 0.687500
vt 0.500000 0.687500
vt 0.562500 0.687500
vt 0.625000 0.687500
vt 0.375000 0.750000
vt 0.437500 0.750000
vt 0.500000 0.750000
vt 0.562500 0.750000
vt 0.625000 0.750000
vt 0.812500 0.062500
vt 0.750000 0.062500
vt 0.687500 0.062500
vt 0.875000 0.125000
vt 0.812500 0.125000
vt 0.750000 0.125000
vt 0.687500 0.125000
vt 0.875000 0.187500
vt 0.812500 0.187500
vt 0.750000 0.187500
vt 0.687500 0.187500
vt 0.875000 0.250000
vt 0.812500 0.250000
vt 0.750000 0.250000
vt 0.687500 0.250000
vt 0.187500 0.062500
vt 0.250000 0.062500
vt 0.312500 0.062500
vt 0.125000 0.125000
vt 0.187500 0.125000
vt 0.250000 0.125000
vt 0.312500 0.125000
vt 0.125000 0.187500
vt 0.187500 0.187500
vt 0.250000 0.187500
vt 0.312500 0.187500
vt 0.125000 0.250000
vt 0.187500 0.250000
vt 0.250000 0.250000
vt 0.312500 0.250000
vn 0.000000 -0.611252 0.791436
vn 0.000000 -0.611251 0.791437
vn 0.000000 -0.360351 0.932817
vn 0.000000 -0.193845 0.981032
vn 0.000000 -0.611251 0.791436
vn 0.000000 -0.360351 0.932817
vn 0.000000 -0.611251 0.791437
vn 0.000000 -0.360351 0.932817
vn 0.000000 -0.611252 0.791436
vn 0.000000 -0.193845 0.981032
vn 0.000000 0.714031 0.700114
vn 0.000000 0.734734 0.678355
vn 0.000000 0.714031 0.700114
vn 0.000000 0.714031 0.700114
vn 0.000000 0.734734 0.678355
vn 0.000000 0.945056 0.326909
vn 0.000000 0.953588 0.301114
vn 0.000000 0.945056 0.326909
vn 0.000000 0.945056 0.326909
vn 0.000000 0.953588 0.301114
vn 0.000000 0.904358 0.426775
vn 0.000000 0.904358 0.426775
vn 0.000000 0.904358 0.426775
vn 0.000000 0.904358 0.426775
vn 0.000000 0.904358 0.426775
vn 0.000000 0.903550 0.428483
vn 0.000000 0.903550 0.428483
vn 0.000000 0.992278 0.124033
vn 0.000000 0.992278 0.124033
vn 0.000000 0.903550 0.428483
vn 0.000000 0.992278 0.124033
vn 0.000000 0.903550 0.428483
vn 0.000000 0.992278 0.124033
vn 0.000000 0.903550 0.428483
vn 0.000000 0.992278 0.124033
vn 0.000000 0.988069 -0.154015
vn 0.000000 0.988069 -0.154015
vn 0.000000 0.988069 -0.154015
vn 0.000000 0.988069 -0.154015
vn 0.000000 0.988069 -0.154015
vn 0.000000 0.939452 -0.342681
vn 0.000000 0.939452 -0.342681
vn 0.000000 0.939452 -0.342681
vn 0.000000 0.939452 -0.342681
vn 0.000000 0.939452 -0.342681
vn 0.000000 0.787191 -0.616709
vn 0.000000 0.787191 -0.616709
vn 0.000000 0.851557 -0.524262
vn 0.000000 0.866270 -0.499576
vn 0.000000 0.787191 -0.616709
vn 0.000000 0.851557 -0.524262
vn 0.000000 0.787191 -0.616709
vn 0.000000 0.851557 -0.524262
vn 0.000000 0.787191 -0.616709
vn 0.000000 0.866270 -0.499576
vn 0.000000 1.000000 0.000443
vn 0.000000 1.000000 0.000443
vn 0.000000 1.000000 0.000443
vn 0.000000 1.000000 0.000443
vn 0.000000 1.000000 0.000443
vn 0.000000 -0.487559 -0.873090
vn 0.000000 -0.487559 -0.873090
vn 0.000000 -0.487559 -0.873090
vn 0.000000 -0.487559 -0.873090
vn 0.000000 -0.487560 -0.873090
vn 0.000000 -0.487560 -0.873090
vn 0.000000 -0.487559 -0.873090
vn 0.000000 -0.487559 -0.873090
vn 0.000000 -0.487559 -0.873090
vn 0.000000 -0.487559 -0.873090
vn 0.995801 -0.091547 0.000000
vn 0.995801 -0.091547 0.000000
vn 0.998676 -0.051444 0.000000
vn 0.997999 -0.063237 0.000000
vn 0.995801 -0.091547 0.000000
vn 0.998499 -0.054767 0.000000
vn 1.000000 0.000000 0.000000
vn 0.924869 0.374905 -0.063749
vn 0.895824 0.442569 -0.040408
vn 0.911165 0.411517 0.020802
vn 0.872061 0.486154 0.056241
vn 0.000000 -0.000000 0.000000
vn 0.923185 0.382187 0.040767
vn 0.846702 0.524539 -0.089193
vn 0.875978 0.480807 -0.038566
vn 0.884067 0.466946 0.019684
vn 0.856063 0.512880 0.064109
vn -0.995801 -0.091547 0.000000
vn -0.995801 -0.091547 0.000000
vn -0.997999 -0.063237 0.000000
vn -0.998676 -0.051444 0.000000
vn -0.995801 -0.091547 0.000000
vn -0.998499 -0.054766 0.000000
vn -1.000000 -0.000001 0.000000
vn -0.895824 0.442569 -0.040408
vn -0.924869 0.374905 -0.063749
vn -0.911165 0.411517 0.020802
vn -0.872061 0.486154 0.056241
vn -0.000000 0.000000 0.000000
vn -0.923185 0.382188 0.040767
vn -0.875978 0.480807 -0.038566
vn -0.846702 0.524539 -0.089193
vn -0.884067 0.466946 0.019684
vn -0.856063 0.512880 0.064109
vn -0.599101 0.796157 0.084925
vn 0.599101 0.796157 0.084925
s 1
g pCube1
usemtl phong4SG
f 1/1/1 2/2/2 7/7/3 6/6/4
f 2/2/2 3/3/5 8/8/6 7/7/3
f 3/3/5 4/4/7 9/9/8 8/8/6
f 4/4/7 5/5/9 10/10/10 9/9/8
usemtl phong1SG
f 6/6/4 7/7/3 12/12/11 11/11/12
f 7/7/3 8/8/6 13/13/13 12/12/11
f 8/8/6 9/9/8 14/14/14 13/13/13
f 9/9/8 10/10/10 15/15/15 14/14/14
usemtl phong2SG
f 11/11/12 12/12/11 17/17/16 16/16/17
f 12/12/11 13/13/13 18/18/18 17/17/16
f 13/13/13 14/14/14 19/19/19 18/18/18
f 14/14/14 15/15/15 20/20/20 19/19/19
f 16/16/17 17/17/16 22/22/21 21/21/22
f 17/17/16 18/18/18 23/23/23 22/22/21
f 18/18/18 19/19/19 24/24/24 23/23/23
f 19/19/19 20/20/20 25/25/25 24/24/24
s 2
f 26/26/26 27/27/27 32/32/28 31/31/29
f 27/27/27 28/28/30 33/33/31 32/32/28
f 28/28/30 29/29/32 34/34/33 33/33/31
f 29/29/32 30/30/34 35/35/35 34/34/33
f 31/31/29 32/32/28 37/37/36 36/36/37
f 32/32/28 33/33/31 38/38/38 37/37/36
f 33/33/31 34/34/33 39/39/39 38/38/38
f 34/34/33 35/35/35 40/40/40 39/39/39
f 36/36/37 37/37/36 42/42/41 41/41/42
f 37/37/36 38/38/38 43/43/43 42/42/41
f 38/38/38 39/39/39 44/44/44 43/43/43
f 39/39/39 40/40/40 45/45/45 44/44/44
s 3
f 41/41/46 42/42/47 47/47/48 46/46/49
f 42/42/47 43/43/50 48/48/51 47/47/48
f 43/43/50 44/44/52 49/49/53 48/48/51
f 44/44/52 45/45/54 50/50/55 49/49/53
f 46/46/49 47/47/48 52/52/56 51/51/57
f 47/47/48 48/48/51 53/53/58 52/52/56
f 48/48/51 49/49/53 54/54/59 53/53/58
f 49/49/53 50/50/55 55/55/60 54/54/59
s 4
usemtl phong4SG
f 56/56/61 57/57/62 62/62/63 61/61/64
f 57/57/62 58/58/65 63/63/66 62/62/63
f 58/58/65 59/59/67 64/64/68 63/63/66
f 59/59/67 60/60/69 65/65/70 64/64/68
s 5
usemtl phong2SG
f 67/67/71 66/66/72 69/70/73 70/71/74
f 68/68/75 67/67/71 70/71/74 71/72/76
f 69/70/73 55/69/77 50/73/78 72/74/79
f 70/71/74 69/70/73 72/74/79 73/75/80
f 71/72/76 70/71/74 73/75/80 74/76/81
f 15/15/82 71/72/76 74/76/81 20/20/83
f 72/74/79 50/73/78 45/77/84 40/78/85
f 73/75/80 72/74/79 40/78/85 35/79/86
f 74/76/81 73/75/80 35/79/86 30/80/87
s 7
f 75/81/88 76/82/89 79/86/90 78/85/91
f 76/82/89 77/83/92 80/87/93 79/86/90
f 51/84/94 78/85/91 81/89/95 46/88/96
f 78/85/91 79/86/90 82/90/97 81/89/95
f 79/86/90 80/87/93 83/91/98 82/90/97
f 80/87/93 11/11/99 16/16/100 83/91/98
f 46/88/96 81/89/95 36/93/101 41/92/102
f 81/89/95 82/90/97 31/94/103 36/93/101
f 82/90/97 83/91/98 26/95/104 31/94/103
f 83/91/98 16/16/100 21/21/105
s 5
f 20/20/83 74/76/81 25/25/106
